<svg xmlns="http://www.w3.org/2000/svg" viewBox="0 0 64 64">
  <!-- Soft feather plush  a poet's night companion. -->
  <ellipse cx="32" cy="54" rx="18" ry="5" fill="#2b2b33" opacity="0.15"/>
  <path d="M14 40c2-16 12-28 18-30 6 2 16 14 18 30-4 8-14 12-18 12s-14-4-18-12z" fill="#e8e6df" stroke="#2b2b33" stroke-width="2.5" stroke-linejoin="round"/>
  <path d="M22 38c4-12 8-20 10-22 2 2 6 10 10 22" fill="none" stroke="#c4b5d4" stroke-width="2" stroke-linecap="round"/>
  <path d="M28 18c0 6 2 14 4 22" fill="none" stroke="#a78bfa" stroke-width="2.5" stroke-linecap="round"/>
  <ellipse cx="26" cy="36" rx="2.2" ry="2.2" fill="#2b2b33"/>
  <ellipse cx="38" cy="36" rx="2.2" ry="2.2" fill="#2b2b33"/>
  <path d="M30 41c1.5 2 2.5 2 4 0" fill="none" stroke="#5b4a7a" stroke-width="1.8" stroke-linecap="round"/>
  <path d="M32 8v6" fill="none" stroke="#2b2b33" stroke-width="2.5" stroke-linecap="round"/>
  <circle cx="32" cy="6" r="3" fill="#a78bfa" stroke="#2b2b33" stroke-width="2"/>
</svg>
